<?xml version="1.0" encoding="UTF-8" standalone="no"?>
<svg
   width="142.12199"
   height="30.304001"
   viewBox="0 0 37.6026 8.018"
   version="1.1"
   id="svg1838"
   sodipodi:docname="logo.svg"
   inkscape:version="1.1.1 (c3084ef, 2021-09-22)"
   inkscape:export-filename="/Users/richpauloo/Documents/GitHub/wg/assets/media/logo.png"
   inkscape:export-xdpi="96"
   inkscape:export-ydpi="96"
   xmlns:inkscape="http://www.inkscape.org/namespaces/inkscape"
   xmlns:sodipodi="http://sodipodi.sourceforge.net/DTD/sodipodi-0.dtd"
   xmlns="http://www.w3.org/2000/svg"
   xmlns:svg="http://www.w3.org/2000/svg">
  <defs
     id="defs1842" />
  <sodipodi:namedview
     id="namedview1840"
     pagecolor="#ffffff"
     bordercolor="#666666"
     borderopacity="1.0"
     inkscape:pageshadow="2"
     inkscape:pageopacity="0.0"
     inkscape:pagecheckerboard="0"
     showgrid="false"
     width="172.12199px"
     inkscape:zoom="6.5476815"
     inkscape:cx="71.781133"
     inkscape:cy="13.66896"
     inkscape:window-width="1743"
     inkscape:window-height="969"
     inkscape:window-x="0"
     inkscape:window-y="23"
     inkscape:window-maximized="0"
     inkscape:current-layer="text2384" />
  <g
     style="line-height:1.25"
     id="g1836">
    <g
       aria-label="watergrid"
       transform="scale(1.0214169,0.97903218)"
       id="text2384"
       style="font-size:9.37463px;stroke-width:0.234366">
      <path
         d="M 1.3368953,6.7688856 H 2.0681165 L 3.1649482,3.2252755 H 3.193072 L 4.2711545,6.7688856 H 4.993001 L 6.3148238,2.1190691 H 5.6304758 L 4.6742636,5.8407972 H 4.6367651 L 3.5118095,2.1190691 H 2.8930839 L 1.7775029,5.8407972 H 1.7400044 L 0.78379215,2.1190691 H 0.01507249 Z"
         style="fill:#0072ff"
         id="path13113" />
      <path
         d="m 8.4008256,6.8532573 c 0.6281002,0 1.0218347,-0.2249911 1.2374512,-0.4874808 h 0.046873 l 0.074997,0.4031091 h 0.581227 V 3.4033934 c 0,-0.9468376 -0.5718524,-1.3686959 -1.5936871,-1.3686959 -0.5343539,0 -0.9843361,0.084372 -1.3874452,0.253115 V 2.8034171 C 7.6508552,2.7190455 8.0164658,2.653423 8.466448,2.653423 c 0.8343421,0 1.1530795,0.1874926 1.1530795,0.9093392 V 4.0502429 L 8.3633271,4.200237 C 7.4727373,4.3033579 6.947758,4.7345909 6.947758,5.5501837 c 0,0.8718406 0.6093509,1.3030736 1.4530676,1.3030736 z m 0.178118,-0.5624778 c -0.5343539,0 -0.8812152,-0.253115 -0.8812152,-0.759345 0,-0.534354 0.2812389,-0.7687197 0.8530913,-0.8249675 L 9.6195275,4.5845968 v 1.368696 C 9.4226603,6.15016 9.0101766,6.2907795 8.5789436,6.2907795 Z"
         style="fill:#0072ff"
         id="path13115" />
      <path
         d="m 13.16929,6.8251334 c 0.403109,0 0.599976,-0.1031209 0.787469,-0.1874926 V 6.15016 c -0.187493,0.056248 -0.40311,0.084372 -0.599977,0.084372 -0.534354,0 -0.684348,-0.178118 -0.684348,-0.6281002 v -2.887386 h 1.190578 V 2.1284438 H 12.672434 V 1.0222374 h -0.712472 v 1.1062064 h -0.665598 v 0.5906017 h 0.665598 v 2.9998816 c 0,0.7874689 0.478107,1.1062063 1.209328,1.1062063 z"
         style="fill:#0072ff"
         id="path13117" />
      <path
         d="m 16.887355,6.8532573 c 0.749971,0 1.284325,-0.2343658 1.565564,-0.431233 V 5.8876704 c -0.421859,0.1968672 -0.834342,0.3468613 -1.453068,0.3468613 -0.993711,0 -1.546814,-0.4499822 -1.584312,-1.6124364 h 3.168624 v -0.403109 c 0,-1.4436931 -0.599976,-2.1842888 -1.874926,-2.1842888 -1.068707,0 -2.02492,0.7218465 -2.02492,2.3436575 v 0.1312448 c 0,1.4530676 0.740596,2.3436575 2.203038,2.3436575 z M 16.690488,2.6159245 c 0.759345,0 1.143705,0.4218584 1.143705,1.4343184 h -2.418654 c 0.075,-1.0968317 0.693722,-1.4343184 1.274949,-1.4343184 z"
         style="fill:#0072ff"
         id="path13119" />
      <path
         d="m 19.662246,6.7688856 h 0.721846 V 3.1127799 c 0.328112,-0.2343657 0.778095,-0.4031091 1.246826,-0.4031091 0.075,0 0.215617,0.00937 0.337487,0.028124 V 2.0909453 c -0.04687,-0.00937 -0.178118,-0.018749 -0.281239,-0.018749 -0.524979,0 -1.031209,0.2718643 -1.293699,0.5718524 h -0.04687 V 2.1190691 h -0.684348 z"
         style="fill:#0072ff"
         id="path13121" />
      <path
         d="m 24.524896,8.1469562 c 1.584312,0 2.221787,-0.6281002 2.221787,-1.4249437 0,-0.862466 -0.6281,-1.115581 -1.471817,-1.115581 h -1.284324 c -0.309363,0 -0.459357,-0.093746 -0.459357,-0.3468613 0,-0.1499941 0.09375,-0.2624897 0.215617,-0.3749852 0.24374,0.084372 0.50623,0.1312448 0.796843,0.1312448 0.974962,0 1.743681,-0.4968554 1.743681,-1.4905662 v -0.00937 c 0,-0.3656106 -0.12187,-0.6468495 -0.337486,-0.8530913 h 0.834342 V 2.1096945 h -1.574938 c -0.206242,-0.046873 -0.421858,-0.074997 -0.656224,-0.074997 -1.021835,0 -1.753056,0.5343539 -1.753056,1.4999408 v 0.018749 c 0,0.5531032 0.224991,0.9280884 0.581227,1.1624541 -0.356236,0.2624897 -0.524979,0.4781062 -0.524979,0.7687197 0,0.3093628 0.206242,0.50623 0.468731,0.5812271 v 0.046873 c -0.478106,0.1593687 -0.881215,0.4499822 -0.881215,0.9468376 0,0.6749734 0.665599,1.0874571 2.081168,1.0874571 z m -0.01875,-0.5624778 c -0.918714,0 -1.312449,-0.2062418 -1.312449,-0.6187256 0,-0.3937344 0.271865,-0.5999763 0.628101,-0.7218465 h 1.340572 c 0.609351,0 0.834342,0.1406195 0.834342,0.5718525 0,0.4874807 -0.393735,0.7687196 -1.490566,0.7687196 z m 0.0375,-3.1311264 c -0.618725,0 -1.031209,-0.2999882 -1.031209,-0.9093391 v -0.046873 c 0,-0.581227 0.393734,-0.9187137 1.031209,-0.9187137 0.6281,0 1.021835,0.2906135 1.021835,0.9280884 v 0.046873 c 0,0.5999763 -0.374985,0.8999645 -1.021835,0.8999645 z"
         style="font-family:'.Apple SD Gothic NeoI';-inkscape-font-specification:'.Apple SD Gothic NeoI'"
         id="path13123" />
      <path
         d="m 27.64533,6.7688856 h 0.721846 V 3.1127799 c 0.328112,-0.2343657 0.778094,-0.4031091 1.246826,-0.4031091 0.075,0 0.215616,0.00937 0.337487,0.028124 V 2.0909453 c -0.04687,-0.00937 -0.178118,-0.018749 -0.281239,-0.018749 -0.52498,0 -1.03121,0.2718643 -1.293699,0.5718524 h -0.04687 V 2.1190691 H 27.64533 Z"
         style="font-family:'.Apple SD Gothic NeoI';-inkscape-font-specification:'.Apple SD Gothic NeoI'"
         id="path13125" />
      <path
         d="m 30.914293,6.7688856 h 0.712471 V 2.1284438 h -0.712471 z m -0.0094,-5.5779048 h 0.731221 V 0.44101038 h -0.731221 z"
         style="font-family:'.Apple SD Gothic NeoI';-inkscape-font-specification:'.Apple SD Gothic NeoI'"
         id="path13127" />
      <path
         d="m 34.669418,6.8532573 c 0.6281,0 1.078082,-0.1968673 1.359321,-0.4687315 h 0.0375 l 0.08437,0.3843598 h 0.599977 V 0.05665055 H 36.028739 V 2.3440603 C 35.775624,2.1940662 35.38189,2.0346975 34.810037,2.0346975 c -1.199953,0 -2.071793,0.7312211 -2.071793,2.4186545 v 0.1218702 c 0,1.7155573 1.003085,2.2780351 1.931174,2.2780351 z m 0.215616,-0.5906017 c -0.834342,0 -1.39682,-0.4124837 -1.39682,-1.7155573 V 4.3596057 c 0,-1.2562004 0.534354,-1.7155573 1.415569,-1.7155573 0.478107,0 0.90934,0.1312448 1.124956,0.2999882 v 2.9248845 c -0.234366,0.1874926 -0.599976,0.3937345 -1.143705,0.3937345 z"
         style="font-family:'.Apple SD Gothic NeoI';-inkscape-font-specification:'.Apple SD Gothic NeoI'"
         id="path13129" />
    </g>
  </g>
</svg>
